<svg
    xmlns="http://www.w3.org/2000/svg"
    xmlns:xlink="http://www.w3.org/1999/xlink" viewBox="0 0 800 100" preserveAspectRatio="xMidYMid" width="800" height="100" style="display: block; shape-rendering: auto; background: rgba(253, 253, 253, 0);">
    <style type="text/css">
        .ld-text text {
            text-anchor: middle;
            dominant-baseline: middle;
            font-size: 45px;
            opacity: 0;
            user-select: none;
            pointer-events: none;
        }
    </style>
    <g style="transform-origin:400px 50px;transform:scale(1)" class="ld-text">
        <g transform="translate(400,50)">
            <g transform="scale(0.5625) translate(0,0)">
                <!-- let -->
                <g class="path" style="opacity: 0; transform-origin: -544.52px -1.68px; transform: matrix3d(1, 0, 0, 0, 0, 1, 0, 0, 0, 0, 1, 0, 0, 0, 0, 1); animation: 1s linear forwards animate-pz6pf0889g; transform-box: view-box;">
                    <path d="M24.48-4.25L24.48 44.47Q24.48 50.15 31.44 50.15L31.44 50.15Q34.72 50.15 38.48 48.71L38.48 48.71L40.24 53.59Q36.24 55.75 30.24 55.75L30.24 55.75Q24.56 55.75 21.16 52.63Q17.76 49.51 17.76 44.15L17.76 44.15L17.76 1.11L4.80 1.11L4.80-4.25L24.48-4.25" transform="translate(-567.040,-27.435)" style="fill: rgb(123, 117, 151);"></path>
                </g>
                <g class="path" style="opacity: 0; transform-origin: -494.96px 6.35px; transform: matrix3d(1, 0, 0, 0, 0, 1, 0, 0, 0, 0, 1, 0, 0, 0, 0, 1); animation: 1s linear 0.0275s forwards animate-pz6pf0889g; transform-box: view-box;">
                    <path d="M61.36 36.15Q61.60 43.11 65 46.63Q68.40 50.15 73.60 50.15L73.60 50.15Q76.72 50.15 79.32 49.23Q81.92 48.31 84.88 46.39L84.88 46.39L88 50.87Q85.04 53.19 81.24 54.47Q77.44 55.75 73.60 55.75L73.60 55.75Q64.48 55.75 59.40 49.79Q54.32 43.83 54.32 33.83L54.32 33.83Q54.32 27.51 56.56 22.51Q58.80 17.51 62.96 14.67Q67.12 11.83 72.64 11.83L72.64 11.83Q80.64 11.83 85.24 17.39Q89.84 22.95 89.84 32.55L89.84 32.55Q89.84 34.39 89.68 36.15L89.68 36.15L61.36 36.15 zM72.72 17.35Q67.84 17.35 64.80 20.83Q61.76 24.31 61.36 31.03L61.36 31.03L83.28 31.03Q83.20 24.39 80.40 20.87Q77.60 17.35 72.72 17.35L72.72 17.35" transform="translate(-567.040,-27.435)" style="fill: rgb(123, 117, 151);"></path>
                </g>
                <g class="path" style="opacity: 0; transform-origin: -447.12px 1.64px; transform: matrix3d(1, 0, 0, 0, 0, 1, 0, 0, 0, 0, 1, 0, 0, 0, 0, 1); animation: 1s linear 0.055s forwards animate-pz6pf0889g; transform-box: view-box;">
                    <path d="M137.52 52.71Q135.36 54.15 132.28 54.95Q129.20 55.75 126.16 55.75L126.16 55.75Q119.52 55.75 115.76 52.27Q112 48.79 112 43.11L112 43.11L112 17.99L102.32 17.99L102.32 12.71L112 12.71L112 3.19L118.72 2.39L118.72 12.71L133.36 12.71L132.48 17.99L118.72 17.99L118.72 43.03Q118.72 46.63 120.64 48.39Q122.56 50.15 126.80 50.15L126.80 50.15Q131.12 50.15 134.88 48.15L134.88 48.15L137.52 52.71" transform="translate(-567.040,-27.435)" style="fill: rgb(123, 117, 151);"></path>
                </g>
                <!-- name -->
                <g class="path" style="opacity: 0; transform-origin: -351px 5.92px; transform: matrix3d(1, 0, 0, 0, 0, 1, 0, 0, 0, 0, 1, 0, 0, 0, 0, 1); animation: 1s linear 0.0825s forwards animate-pz6pf0889g; transform-box: view-box;">
                    <path d="M200 54.87L200 12.71L205.76 12.71L206.32 18.63Q208.80 15.43 212.60 13.63Q216.40 11.83 220.24 11.83L220.24 11.83Q232.08 11.83 232.08 24.31L232.08 24.31L232.08 54.87L225.36 54.87L225.36 29.27Q225.36 24.55 224.84 22.07Q224.32 19.59 222.80 18.39Q221.28 17.19 218.16 17.19L218.16 17.19Q214.72 17.19 211.68 19.27Q208.64 21.35 206.72 24.23L206.72 24.23L206.72 54.87L200 54.87" transform="translate(-567.040,-27.435)" style="fill: rgb(183, 85, 29);"></path>
                </g>
                <g class="path" style="opacity: 0; transform-origin: -303.44px 6.4px; transform: matrix3d(1, 0, 0, 0, 0, 1, 0, 0, 0, 0, 1, 0, 0, 0, 0, 1); animation: 1s linear 0.11s forwards animate-pz6pf0889g; transform-box: view-box;">
                    <path d="M278.24 45.67Q278.24 48.15 279.04 49.31Q279.84 50.47 281.68 51.03L281.68 51.03L280 55.83Q273.84 55.03 272.32 49.83L272.32 49.83Q270.08 52.71 266.68 54.23Q263.28 55.75 259.12 55.75L259.12 55.75Q252.80 55.75 249.16 52.23Q245.52 48.71 245.52 42.79L245.52 42.79Q245.52 36.31 250.60 32.79Q255.68 29.27 265.20 29.27L265.20 29.27L271.44 29.27L271.44 25.83Q271.44 21.35 268.88 19.39Q266.32 17.43 261.44 17.43L261.44 17.43Q256.64 17.43 250.48 19.59L250.48 19.59L248.64 14.47Q256.08 11.83 262.48 11.83L262.48 11.83Q270.16 11.83 274.20 15.43Q278.24 19.03 278.24 25.43L278.24 25.43L278.24 45.67 zM260.80 50.71Q263.92 50.71 266.76 49.11Q269.60 47.51 271.44 44.71L271.44 44.71L271.44 33.91L265.36 33.91Q258.64 33.91 255.68 36.15Q252.72 38.39 252.72 42.71L252.72 42.71Q252.72 50.71 260.80 50.71L260.80 50.71" transform="translate(-567.040,-27.435)" style="fill: rgb(183, 85, 29);"></path>
                </g>
                <g class="path" style="opacity: 0; transform-origin: -255.04px 5.92px; transform: matrix3d(1, 0, 0, 0, 0, 1, 0, 0, 0, 0, 1, 0, 0, 0, 0, 1); animation: 1s linear 0.1375s forwards animate-pz6pf0889g; transform-box: view-box;">
                    <path d="M323.76 11.83Q327.36 11.83 329.64 14.35Q331.92 16.87 331.92 23.51L331.92 23.51L331.92 54.87L325.76 54.87L325.76 24.63Q325.76 20.23 325.20 18.67Q324.64 17.11 322.48 17.11L322.48 17.11Q318.40 17.11 315.12 22.15L315.12 22.15L315.12 54.87L308.88 54.87L308.88 24.63Q308.88 20.23 308.32 18.67Q307.76 17.11 305.60 17.11L305.60 17.11Q301.52 17.11 298.24 22.15L298.24 22.15L298.24 54.87L292.08 54.87L292.08 12.71L297.28 12.71L297.76 17.67Q299.68 14.87 301.80 13.35Q303.92 11.83 306.88 11.83L306.88 11.83Q312.80 11.83 314.48 17.43L314.48 17.43Q316.40 14.71 318.56 13.27Q320.72 11.83 323.76 11.83L323.76 11.83" transform="translate(-567.040,-27.435)" style="fill: rgb(183, 85, 29);"></path>
                </g>
                <g class="path" style="opacity: 0; transform-origin: -206.96px 6.35px; transform: matrix3d(1, 0, 0, 0, 0, 1, 0, 0, 0, 0, 1, 0, 0, 0, 0, 1); animation: 1s linear 0.165s forwards animate-pz6pf0889g; transform-box: view-box;">
                    <path d="M349.36 36.15Q349.60 43.11 353 46.63Q356.40 50.15 361.60 50.15L361.60 50.15Q364.72 50.15 367.32 49.23Q369.92 48.31 372.88 46.39L372.88 46.39L376 50.87Q373.04 53.19 369.24 54.47Q365.44 55.75 361.60 55.75L361.60 55.75Q352.48 55.75 347.40 49.79Q342.32 43.83 342.32 33.83L342.32 33.83Q342.32 27.51 344.56 22.51Q346.80 17.51 350.96 14.67Q355.12 11.83 360.64 11.83L360.64 11.83Q368.64 11.83 373.24 17.39Q377.84 22.95 377.84 32.55L377.84 32.55Q377.84 34.39 377.68 36.15L377.68 36.15L349.36 36.15 zM360.72 17.35Q355.84 17.35 352.80 20.83Q349.76 24.31 349.36 31.03L349.36 31.03L371.28 31.03Q371.20 24.39 368.40 20.87Q365.60 17.35 360.72 17.35L360.72 17.35" transform="translate(-567.040,-27.435)" style="fill: rgb(183, 85, 29);"></path>
                </g>
                <!-- = -->
                <g class="path" style="opacity: 0; transform-origin: -111.04px -5.04px; transform: matrix3d(1, 0, 0, 0, 0, 1, 0, 0, 0, 0, 1, 0, 0, 0, 0, 1); animation: 1s linear 0.1925s forwards animate-pz6pf0889g; transform-box: view-box;">
                    <path d="M471.52 19.51L471.52 25.27L440.48 25.27L440.48 19.51L471.52 19.51" transform="translate(-567.040,-27.435)" style="fill: rgb(123, 117, 151);"></path>
                </g>
                <g class="path" style="opacity: 0; transform-origin: -111.04px 10.16px; transform: matrix3d(1, 0, 0, 0, 0, 1, 0, 0, 0, 0, 1, 0, 0, 0, 0, 1); animation: 1s linear 0.22s forwards animate-pz6pf0889g; transform-box: view-box;">
                    <path d="M471.52 34.71L471.52 40.47L440.48 40.47L440.48 34.71L471.52 34.71" transform="translate(-567.040,-27.435)" style="fill: rgb(123, 117, 151);"></path>
                </g>
                <!-- "Benno Kress" -->
                <g class="path" style="opacity: 0; transform-origin: -21.72px -21.28px; transform: matrix3d(1, 0, 0, 0, 0, 1, 0, 0, 0, 0, 1, 0, 0, 0, 0, 1); animation: 1s linear 0.2475s forwards animate-pz6pf0889g; transform-box: view-box;">
                    <path d="M542.32 16.55L541.12-4.25L549.52-4.25L548.24 16.55L542.32 16.55" transform="translate(-567.040,-27.435)" style="fill: rgb(33, 124, 58);"></path>
                </g>
                <g class="path" style="opacity: 0; transform-origin: -8.36px -21.28px; transform: matrix3d(1, 0, 0, 0, 0, 1, 0, 0, 0, 0, 1, 0, 0, 0, 0, 1); animation: 1s linear 0.275s forwards animate-pz6pf0889g; transform-box: view-box;">
                    <path d="M555.76 16.55L554.48-4.25L562.88-4.25L561.68 16.55L555.76 16.55" transform="translate(-567.040,-27.435)" style="fill: rgb(33, 124, 58);"></path>
                </g>
                <g class="path" style="opacity: 0; transform-origin: 34.4px -0.13px; transform: matrix3d(1, 0, 0, 0, 0, 1, 0, 0, 0, 0, 1, 0, 0, 0, 0, 1); animation: 1s linear 0.3025s forwards animate-pz6pf0889g; transform-box: view-box;">
                    <path d="M619.20 39.19Q619.20 47.51 613.24 51.19Q607.28 54.87 598.56 54.87L598.56 54.87L583.68 54.87L583.68-0.25L597.28-0.25Q605.68-0.25 611.24 2.99Q616.80 6.23 616.80 13.67L616.80 13.67Q616.80 18.63 613.84 21.63Q610.88 24.63 606.48 25.67L606.48 25.67Q619.20 27.83 619.20 39.19L619.20 39.19 zM609.68 14.07Q609.68 9.51 606.88 7.47Q604.08 5.43 598.88 5.43L598.88 5.43L590.64 5.43L590.64 23.19L599.52 23.19Q609.68 23.19 609.68 14.07L609.68 14.07 zM611.84 39.43Q611.84 33.59 608.68 31.27Q605.52 28.95 600 28.95L600 28.95L590.64 28.95L590.64 49.11L599.76 49.11Q604.80 49.11 608.32 47.03Q611.84 44.95 611.84 39.43L611.84 39.43" transform="translate(-567.040,-27.435)" style="fill: rgb(33, 124, 58);"></path>
                </g>
                <g class="path" style="opacity: 0; transform-origin: 81.04px 6.35px; transform: matrix3d(1, 0, 0, 0, 0, 1, 0, 0, 0, 0, 1, 0, 0, 0, 0, 1); animation: 1s linear 0.33s forwards animate-pz6pf0889g; transform-box: view-box;">
                    <path d="M637.36 36.15Q637.60 43.11 641 46.63Q644.40 50.15 649.60 50.15L649.60 50.15Q652.72 50.15 655.32 49.23Q657.92 48.31 660.88 46.39L660.88 46.39L664 50.87Q661.04 53.19 657.24 54.47Q653.44 55.75 649.60 55.75L649.60 55.75Q640.48 55.75 635.40 49.79Q630.32 43.83 630.32 33.83L630.32 33.83Q630.32 27.51 632.56 22.51Q634.80 17.51 638.96 14.67Q643.12 11.83 648.64 11.83L648.64 11.83Q656.64 11.83 661.24 17.39Q665.84 22.95 665.84 32.55L665.84 32.55Q665.84 34.39 665.68 36.15L665.68 36.15L637.36 36.15 zM648.72 17.35Q643.84 17.35 640.80 20.83Q637.76 24.31 637.36 31.03L637.36 31.03L659.28 31.03Q659.20 24.39 656.40 20.87Q653.60 17.35 648.72 17.35L648.72 17.35" transform="translate(-567.040,-27.435)" style="fill: rgb(33, 124, 58);"></path>
                </g>
                <g class="path" style="opacity: 0; transform-origin: 129px 5.92px; transform: matrix3d(1, 0, 0, 0, 0, 1, 0, 0, 0, 0, 1, 0, 0, 0, 0, 1); animation: 1s linear 0.3575s forwards animate-pz6pf0889g; transform-box: view-box;">
                    <path d="M680 54.87L680 12.71L685.76 12.71L686.32 18.63Q688.80 15.43 692.60 13.63Q696.40 11.83 700.24 11.83L700.24 11.83Q712.08 11.83 712.08 24.31L712.08 24.31L712.08 54.87L705.36 54.87L705.36 29.27Q705.36 24.55 704.84 22.07Q704.32 19.59 702.80 18.39Q701.28 17.19 698.16 17.19L698.16 17.19Q694.72 17.19 691.68 19.27Q688.64 21.35 686.72 24.23L686.72 24.23L686.72 54.87L680 54.87" transform="translate(-567.040,-27.435)" style="fill: rgb(33, 124, 58);"></path>
                </g>
                <g class="path" style="opacity: 0; transform-origin: 177px 5.92px; transform: matrix3d(1, 0, 0, 0, 0, 1, 0, 0, 0, 0, 1, 0, 0, 0, 0, 1); animation: 1s linear 0.385s forwards animate-pz6pf0889g; transform-box: view-box;">
                    <path d="M728 54.87L728 12.71L733.76 12.71L734.32 18.63Q736.80 15.43 740.60 13.63Q744.40 11.83 748.24 11.83L748.24 11.83Q760.08 11.83 760.08 24.31L760.08 24.31L760.08 54.87L753.36 54.87L753.36 29.27Q753.36 24.55 752.84 22.07Q752.32 19.59 750.80 18.39Q749.28 17.19 746.16 17.19L746.16 17.19Q742.72 17.19 739.68 19.27Q736.64 21.35 734.72 24.23L734.72 24.23L734.72 54.87L728 54.87" transform="translate(-567.040,-27.435)" style="fill: rgb(33, 124, 58);"></path>
                </g>
                <g class="path" style="opacity: 0; transform-origin: 224.96px 6.35px; transform: matrix3d(1, 0, 0, 0, 0, 1, 0, 0, 0, 0, 1, 0, 0, 0, 0, 1); animation: 1s linear 0.4125s forwards animate-pz6pf0889g; transform-box: view-box;">
                    <path d="M792.08 11.83Q800.80 11.83 805.48 17.71Q810.16 23.59 810.16 33.75L810.16 33.75Q810.16 43.67 805.40 49.71Q800.64 55.75 792 55.75L792 55.75Q783.28 55.75 778.56 49.87Q773.84 43.99 773.84 33.83L773.84 33.83Q773.84 23.83 778.60 17.83Q783.36 11.83 792.08 11.83L792.08 11.83 zM792.08 17.35Q786.56 17.35 783.84 21.43Q781.12 25.51 781.12 33.83L781.12 33.83Q781.12 42.15 783.80 46.19Q786.48 50.23 792 50.23L792 50.23Q797.52 50.23 800.20 46.19Q802.88 42.15 802.88 33.75L802.88 33.75Q802.88 25.43 800.20 21.39Q797.52 17.35 792.08 17.35L792.08 17.35" transform="translate(-567.040,-27.435)" style="fill: rgb(33, 124, 58);"></path>
                </g>
                <g class="path" style="opacity: 0; transform-origin: 308.84px -0.13px; transform: matrix3d(1, 0, 0, 0, 0, 1, 0, 0, 0, 0, 1, 0, 0, 0, 0, 1); animation: 1s linear 0.44s forwards animate-pz6pf0889g; transform-box: view-box;">
                    <path d="M879.36 54.87L872.40 54.87L872.40-0.25L879.36-0.25L879.36 54.87" transform="translate(-567.040,-27.435)" style="fill: rgb(33, 124, 58);"></path>
                </g>
                <g class="path" style="opacity: 0; transform-origin: 328.32px -0.13px; transform: matrix3d(1, 0, 0, 0, 0, 1, 0, 0, 0, 0, 1, 0, 0, 0, 0, 1); animation: 1s linear 0.4675s forwards animate-pz6pf0889g; transform-box: view-box;">
                    <path d="M879.76 25.43L901.36-0.25L909.44-0.25L887.92 25.03L910.96 54.87L902.24 54.87L879.76 25.43" transform="translate(-567.040,-27.435)" style="fill: rgb(33, 124, 58);"></path>
                </g>
                <g class="path" style="opacity: 0; transform-origin: 370.36px 5.92px; transform: matrix3d(1, 0, 0, 0, 0, 1, 0, 0, 0, 0, 1, 0, 0, 0, 0, 1); animation: 1s linear 0.495s forwards animate-pz6pf0889g; transform-box: view-box;">
                    <path d="M948.48 11.83Q951.04 11.83 954.40 12.71L954.40 12.71L953.44 27.03L948 27.03L948 17.99L947.60 17.99Q937.84 17.99 933.76 31.91L933.76 31.91L933.76 49.67L942.32 49.67L942.32 54.87L920.40 54.87L920.40 49.67L927.04 49.67L927.04 17.91L920.40 17.91L920.40 12.71L932.08 12.71L933.36 22.71Q935.92 17.27 939.48 14.55Q943.04 11.83 948.48 11.83L948.48 11.83" transform="translate(-567.040,-27.435)" style="fill: rgb(33, 124, 58);"></path>
                </g>
                <g class="path" style="opacity: 0; transform-origin: 417.04px 6.35px; transform: matrix3d(1, 0, 0, 0, 0, 1, 0, 0, 0, 0, 1, 0, 0, 0, 0, 1); animation: 1s linear 0.5225s forwards animate-pz6pf0889g; transform-box: view-box;">
                    <path d="M973.36 36.15Q973.60 43.11 977 46.63Q980.40 50.15 985.60 50.15L985.60 50.15Q988.72 50.15 991.32 49.23Q993.92 48.31 996.88 46.39L996.88 46.39L1000 50.87Q997.04 53.19 993.24 54.47Q989.44 55.75 985.60 55.75L985.60 55.75Q976.48 55.75 971.40 49.79Q966.32 43.83 966.32 33.83L966.32 33.83Q966.32 27.51 968.56 22.51Q970.80 17.51 974.96 14.67Q979.12 11.83 984.64 11.83L984.64 11.83Q992.64 11.83 997.24 17.39Q1001.84 22.95 1001.84 32.55L1001.84 32.55Q1001.84 34.39 1001.68 36.15L1001.68 36.15L973.36 36.15 zM984.72 17.35Q979.84 17.35 976.80 20.83Q973.76 24.31 973.36 31.03L973.36 31.03L995.28 31.03Q995.20 24.39 992.40 20.87Q989.60 17.35 984.72 17.35L984.72 17.35" transform="translate(-567.040,-27.435)" style="fill: rgb(33, 124, 58);"></path>
                </g>
                <g class="path" style="opacity: 0; transform-origin: 463.96px 6.35px; transform: matrix3d(1, 0, 0, 0, 0, 1, 0, 0, 0, 0, 1, 0, 0, 0, 0, 1); animation: 1s linear 0.55s forwards animate-pz6pf0889g; transform-box: view-box;">
                    <path d="M1030.40 50.23Q1035.20 50.23 1038 48.39Q1040.80 46.55 1040.80 43.51L1040.80 43.51Q1040.80 41.43 1040.08 40.11Q1039.36 38.79 1037.20 37.71Q1035.04 36.63 1030.64 35.51L1030.64 35.51Q1023.28 33.67 1019.76 31.07Q1016.24 28.47 1016.24 23.35L1016.24 23.35Q1016.24 18.07 1020.64 14.95Q1025.04 11.83 1032.24 11.83L1032.24 11.83Q1041.04 11.83 1047.60 16.47L1047.60 16.47L1044.56 21.11Q1041.92 19.27 1039.04 18.27Q1036.16 17.27 1032.40 17.27L1032.40 17.27Q1023.28 17.27 1023.28 22.79L1023.28 22.79Q1023.28 24.71 1024.28 25.91Q1025.28 27.11 1027.56 28.03Q1029.84 28.95 1034.40 30.23L1034.40 30.23Q1041.28 32.07 1044.68 34.91Q1048.08 37.75 1048.08 43.19L1048.08 43.19Q1048.08 49.51 1042.96 52.63Q1037.84 55.75 1030.40 55.75L1030.40 55.75Q1020.48 55.75 1013.92 50.07L1013.92 50.07L1017.68 45.67Q1020.24 47.75 1023.52 48.99Q1026.80 50.23 1030.40 50.23L1030.40 50.23" transform="translate(-567.040,-27.435)" style="fill: rgb(33, 124, 58);"></path>
                </g>
                <g class="path" style="opacity: 0; transform-origin: 511.96px 6.35px; transform: matrix3d(1, 0, 0, 0, 0, 1, 0, 0, 0, 0, 1, 0, 0, 0, 0, 1); animation: 1s linear 0.5775s forwards animate-pz6pf0889g; transform-box: view-box;">
                    <path d="M1078.40 50.23Q1083.20 50.23 1086 48.39Q1088.80 46.55 1088.80 43.51L1088.80 43.51Q1088.80 41.43 1088.08 40.11Q1087.36 38.79 1085.20 37.71Q1083.04 36.63 1078.64 35.51L1078.64 35.51Q1071.28 33.67 1067.76 31.07Q1064.24 28.47 1064.24 23.35L1064.24 23.35Q1064.24 18.07 1068.64 14.95Q1073.04 11.83 1080.24 11.83L1080.24 11.83Q1089.04 11.83 1095.60 16.47L1095.60 16.47L1092.56 21.11Q1089.92 19.27 1087.04 18.27Q1084.16 17.27 1080.40 17.27L1080.40 17.27Q1071.28 17.27 1071.28 22.79L1071.28 22.79Q1071.28 24.71 1072.28 25.91Q1073.28 27.11 1075.56 28.03Q1077.84 28.95 1082.40 30.23L1082.40 30.23Q1089.28 32.07 1092.68 34.91Q1096.08 37.75 1096.08 43.19L1096.08 43.19Q1096.08 49.51 1090.96 52.63Q1085.84 55.75 1078.40 55.75L1078.40 55.75Q1068.48 55.75 1061.92 50.07L1061.92 50.07L1065.68 45.67Q1068.24 47.75 1071.52 48.99Q1074.80 50.23 1078.40 50.23L1078.40 50.23" transform="translate(-567.040,-27.435)" style="fill: rgb(33, 124, 58);"></path>
                </g>
                <g class="path" style="opacity: 0; transform-origin: 554.28px -21.28px; transform: matrix3d(1, 0, 0, 0, 0, 1, 0, 0, 0, 0, 1, 0, 0, 0, 0, 1); animation: 1s linear 0.605s forwards animate-pz6pf0889g; transform-box: view-box;">
                    <path d="M1118.32 16.55L1117.12-4.25L1125.52-4.25L1124.24 16.55L1118.32 16.55" transform="translate(-567.040,-27.435)" style="fill: rgb(33, 124, 58);"></path>
                </g>
                <g class="path" style="opacity: 0; transform-origin: 567.64px -21.28px; transform: matrix3d(1, 0, 0, 0, 0, 1, 0, 0, 0, 0, 1, 0, 0, 0, 0, 1); animation: 1s linear 0.6325s forwards animate-pz6pf0889g; transform-box: view-box;">
                    <path d="M1131.76 16.55L1130.48-4.25L1138.88-4.25L1137.68 16.55L1131.76 16.55" transform="translate(-567.040,-27.435)" style="fill: rgb(33, 124, 58);"></path>
                </g>
            </g>
            <text dy="0.35em" fill="#7B7597" font-family="Fira Mono" font-size="45">let </text><text dy="0.35em" fill="#B7551D" font-family="Fira Mono" font-size="45">name =</text><text dy="0.35em" fill="#7B7597" font-family="Fira Mono" font-size="45">= </text><text dy="0.35em" fill="#217C3A" font-family="Fira Mono" font-size="45">"Benno Kress"</text>
        </g>
    </g>
    <style type="text/css">@keyframes animate-pz6pf0889g { 0.00% {animation-timing-function: cubic-bezier(0.47,0.22,0.79,0.52);transform: translate(0.00px,0.00px) rotate(0.00deg) scale(1.00, 1.00) skew(0deg, 0.00deg) ;opacity: 0.00;}50.00% {animation-timing-function: cubic-bezier(0.22,0.49,0.52,0.79);transform: translate(0.00px,0.00px) rotate(0.00deg) ;opacity: 0.50;}100.00% {animation-timing-function: cubic-bezier(0.22,0.49,0.52,0.79);transform: translate(0.00px,0.00px) rotate(0.00deg) ;opacity: 1.00;} }</style>
</svg>
